<?xml version="1.0" encoding="utf-8"?>
<!-- Generator: Adobe Illustrator 28.0.0, SVG Export Plug-In . SVG Version: 6.00 Build 0)  -->
<svg version="1.1" id="Calque_1" xmlns="http://www.w3.org/2000/svg" xmlns:xlink="http://www.w3.org/1999/xlink" x="0px" y="0px"
	 viewBox="0 0 702.4 238" style="enable-background:new 0 0 702.4 238;" xml:space="preserve">
<style type="text/css">
	.st0{fill:#E10014;}
	.st1{fill:#FFFFFF;}
</style>
<rect class="st0" width="702.4" height="238"/>
<g>
	<g>
		<path class="st1" d="M79.7,51.4h55.2c21.9,0,36.8,12.4,36.8,29.5c0,15.3-10.3,28.7-25.7,35.6c11.1,5.3,18.4,16.1,18.4,28.5
			c0,25.6-24.9,41.5-52.8,41.5H51.4L79.7,51.4z M109.4,158c12.5,0,21.9-7.7,21.9-18.1c0-5.9-4.7-9-14.2-9H96.7L91,158H109.4z
			 M115.5,104.9c11.7,0,20.6-7.3,20.6-16.9c-0.2-5.3-4.5-8.1-13.2-8.1h-15.5l-5.1,25H115.5z"/>
		<path class="st1" d="M353.9,143.5c0-33.4,33-61,66.4-61c18,0,31,8.3,38.9,19.1l-24.5,16.3c-3.2-4.9-10.5-7.7-16.4-7.7
			c-17,0-32.8,16.5-32.8,32.5c0,10.4,7.9,18.5,18.4,18.5c8.1,0,17.2-4.5,22.9-10l19.6,20.1c-12.6,11.6-27.7,17.7-44.9,17.7
			C374.3,188.9,353.9,168.7,353.9,143.5z"/>
		<path class="st1" d="M546.1,143.5c0-33.4,33-61,66.4-61c18,0,31,8.3,38.9,19.1l-24.5,16.3c-3.2-4.9-10.5-7.7-16.4-7.7
			c-17,0-32.8,16.5-32.8,32.5c0,10.4,7.9,18.5,18.4,18.5c8.1,0,17.2-4.5,22.9-10l19.6,20.1c-12.6,11.6-27.7,17.7-44.9,17.7
			C566.4,188.9,546.1,168.7,546.1,143.5z"/>
		<g>
			<path class="st1" d="M220,161.2c-4.9,0-9.2-1.6-12.4-4.3l44.1-19.6l32.3-14.4c-0.8-6.9-3.1-13.3-6.7-18.9
				c-8.2-12.8-23.1-21.4-41.1-21.4c-33.2,0-66.2,27.3-66.2,61c0,2.7,0.2,5.3,0.7,7.9c1.2,6.8,3.9,13,7.8,18.4
				c8.5,11.6,22.6,19.1,39.5,19.1c16.2,0,32.3-6.6,44.6-17.2l-20-20.6C236.4,157.2,228.2,161.2,220,161.2z M234.4,110.2
				c6,0,11,2.4,14.4,6.3l-47.3,21.1C204.4,123.3,219,110.2,234.4,110.2z"/>
			<path class="st1" d="M347.7,45.5l-35.4,15.7l-5,23.6h-13.4l-5.7,26.6h13.6c-8.9,41.3-9.9,45.6-9.9,50.8
				c0,15.5,11.1,26.8,27.9,26.8c9.1,0,19-3.3,25.9-8.9l-3.6-23.2c-2.2,2-6.9,4.3-11.5,4.3c-3.6,0-5.5-1.8-5.5-6.1
				c0-2.4,0.6-4.7,8.7-43.7H355l5.5-26.6h-21.1L347.7,45.5z"/>
		</g>
	</g>
	<path class="st1" d="M478.3,51.4h31.7l-28.2,135.1h-31.7L478.3,51.4z"/>
	<path class="st1" d="M516.5,84.9h31.9L527,186.6h-31.9L516.5,84.9z M521.1,58.7c0-10.6,9.5-19.1,19.4-19.1
		c9.1,0,15.8,7.3,15.8,16.1c0,10-9.1,18.9-18.8,18.9C527.8,74.6,521.1,67.6,521.1,58.7z"/>
</g>
</svg>
