<?xml version="1.0" encoding="UTF-8"?>
<svg id="Calque_1" data-name="Calque 1" xmlns="http://www.w3.org/2000/svg" viewBox="0 0 503 100">
  <defs>
    <style>
      .cls-1 {
        fill: #007bff;
      }

      .cls-1, .cls-2 {
        fill-rule: evenodd;
      }

      .cls-2 {
        fill: #001536;
      }
    </style>
  </defs>
  <path class="cls-2" d="M117.82,61.11c-3.08-18.15-20.29-30.37-38.44-27.29l5.36-30.39-19.4-3.42c-1.67,3.65-8.97,20.32-12.51,39.14,7.23,4.93,12.53,12.66,14.1,21.97,1.69,9.94-1.22,19.58-7.17,26.79,1.46,1.77,3.12,3.42,5.02,4.9,7.59,5.94,16.78,8.26,25.74,6.75,18.15-3.08,30.37-20.29,27.29-38.44Z"/>
  <path class="cls-1" d="M52.46,41.21c.12-.69.24-1.38.37-2.07-6.87-4.68-15.49-6.82-24.34-5.32l5.36-30.39L14.46,0C12.73,3.78,4.95,21.55,1.57,41.21c-2.71,15.75-2.58,32.72,5.76,44.66,1.79,2.57,3.97,4.9,6.57,6.94,7.59,5.94,16.78,8.26,25.74,6.75,8.22-1.39,15.21-5.69,20.13-11.65-.54-.66-1.06-1.34-1.55-2.04-8.35-11.94-8.47-28.9-5.76-44.66Z"/>
  <path class="cls-2" d="M501.22,51.98c-1.02-.19-2.22-.28-3.42-.28-5.18,0-9.25,2.31-12.21,5.46v-3.61c0-.65-.28-.93-.92-.93h-7.22c-.65,0-.93.28-.93.93v44.59c0,.65.28.93.93.93h7.22c.65,0,.92-.28.92-.93v-24.15c0-10.46,8.42-14.43,15.45-12.95.65.09,1.02-.19,1.02-.83v-7.22c0-.56-.28-.93-.83-1.02ZM447.8,91.3c-5.55,0-8.42-2.59-8.42-6.75,0-4.72,4.35-6.94,9.71-6.94,4.81,0,7.59.65,11.84,1.94,0,7.59-6.01,11.75-13.14,11.75ZM451.03,51.7c-9.99,0-16.19,5.18-18.69,11.84-.28.74.19,1.02.74,1.11l7.49,1.2c.56.09.83-.09,1.11-.65.74-1.48,3.05-5.18,9.35-5.18s9.9,3.79,9.9,9.53v1.67c-4.07-1.2-7.31-1.94-12.3-1.94-10.36,0-18.87,5.37-18.87,15.64s8.05,15.08,16.74,15.08c7.12,0,11.2-2.13,14.43-5.27v3.42c0,.65.28.93.92.93h7.22c.65,0,.92-.28.92-.93v-29.24c0-10.73-7.4-17.21-18.96-17.21ZM397.05,42.64c9.07,0,14.99,4.26,17.67,13.6.18.65.55.93,1.11.93h7.49c.74,0,1.02-.19,1.02-.93-1.76-14.16-12.77-22.85-27.29-22.85s-28.49,10.36-28.49,33.31,13.88,33.31,28.49,33.31,25.53-8.7,27.29-22.85c0-.74-.28-.93-1.02-.93h-7.49c-.56,0-.93.28-1.11.93-2.68,9.34-8.6,13.6-17.67,13.6-9.53,0-18.5-7.59-18.5-24.06s8.97-24.06,18.5-24.06ZM340.53,91.3c-5.55,0-8.42-2.59-8.42-6.75,0-4.72,4.35-6.94,9.71-6.94,4.81,0,7.59.65,11.84,1.94,0,7.59-6.01,11.75-13.14,11.75ZM343.77,51.7c-9.99,0-16.19,5.18-18.69,11.84-.28.74.19,1.02.74,1.11l7.49,1.2c.56.09.83-.09,1.11-.65.74-1.48,3.05-5.18,9.35-5.18s9.9,3.79,9.9,9.53v1.67c-4.07-1.2-7.31-1.94-12.31-1.94-10.36,0-18.87,5.37-18.87,15.64s8.05,15.08,16.74,15.08c7.12,0,11.2-2.13,14.43-5.27v3.42c0,.65.28.93.92.93h7.22c.65,0,.92-.28.92-.93v-29.24c0-10.73-7.4-17.21-18.96-17.21ZM314.99,34.31l-7.22,1.2c-.56.09-.83.46-.83,1.02v61.62c0,.65.28.93.93.93h7.22c.65,0,.93-.28.93-.93v-63.01c0-.65-.46-.93-1.02-.83ZM279.9,89.82h-15.51v-20.17h15.51c6.47,0,10.92,4.07,10.92,9.99,0,7.03-4.44,10.18-10.92,10.18ZM264.39,43.56h10.97c4.63,0,8.79,2.68,8.79,8.42s-4.16,8.42-8.79,8.42h-10.97v-16.84ZM288.87,62.53s4.9-3.24,4.9-11.66c0-10.83-9.16-16.56-19.06-16.56h-19.02c-.65,0-.92.28-.92.92v62.91c0,.65.28.93.92.93h25.31c11.94,0,19.43-7.96,19.43-18.87s-6.66-15.73-11.57-17.67ZM226.12,91.3c-5.55,0-8.42-2.59-8.42-6.75,0-4.72,4.35-6.94,9.71-6.94,4.81,0,7.59.65,11.84,1.94,0,7.59-6.01,11.75-13.14,11.75ZM229.36,51.7c-9.99,0-16.19,5.18-18.69,11.84-.28.74.18,1.02.74,1.11l7.5,1.2c.55.09.83-.09,1.11-.65.74-1.48,3.05-5.18,9.34-5.18s9.9,3.79,9.9,9.53v1.67c-4.07-1.2-7.31-1.94-12.31-1.94-10.36,0-18.87,5.37-18.87,15.64s8.05,15.08,16.75,15.08c7.13,0,11.2-2.13,14.43-5.27v3.42c0,.65.28.93.93.93h7.21c.65,0,.93-.28.93-.93v-29.24c0-10.73-7.4-17.21-18.97-17.21ZM200.57,34.31l-7.22,1.2c-.56.09-.83.46-.83,1.02v61.62c0,.65.28.93.93.93h7.22c.65,0,.92-.28.92-.93v-63.01c0-.65-.46-.93-1.02-.83ZM165.48,89.82h-15.5v-20.17h15.5c6.48,0,10.92,4.07,10.92,9.99,0,7.03-4.44,10.18-10.92,10.18ZM149.98,43.56h10.97c4.63,0,8.79,2.68,8.79,8.42s-4.16,8.42-8.79,8.42h-10.97v-16.84ZM174.46,62.53s4.9-3.24,4.9-11.66c0-10.83-9.16-16.56-19.06-16.56h-19.02c-.65,0-.93.28-.93.92v62.91c0,.65.28.93.93.93h25.31c11.93,0,19.43-7.96,19.43-18.87s-6.66-15.73-11.57-17.67Z"/>
</svg>