<svg width="1000" height="1000" viewBox="0 0 1000 1000" fill="none" xmlns="http://www.w3.org/2000/svg">
<path d="M123.9 604.4C81 604.4 74.5 599.4 76.7 589.8C78.3 583 113.4 452.2 114.2 449.2C117.7 435.2 132.4 438.6 133 438.7C133.4 438.8 133.7 439.2 133.6 439.6C132.3 450.8 111.7 561.3 111.5 562.7C109.8 573.6 111.5 574.7 125 574.7C191.7 574.7 215.9 528.6 222.5 491.8C233.9 428 171.3 408.9 84 416.7C83.2 416.8 77.4 417.1 74.9 415.9C71.6 414.3 68.8 410.3 68.1 408.1C67.8 407.3 67.8 406.5 68.1 406C68.3 405.7 68.5 405.4 68.8 405.3C97 400.3 136.2 393.6 161.5 396.3C257.3 406.4 257.3 466.7 251.7 497.2C248.6 514.9 232.4 604.4 123.9 604.4ZM467.3 565C461.1 586.1 442.2 600.7 420.2 601.3C401.7 602.3 383.2 591.8 375.1 575.6C371.9 569.5 370.1 562.9 369.4 555.1C366.6 556.4 363.7 557.6 360.8 558.5C357 569.2 350.4 579.1 341.3 585.9C321.8 600.4 295.4 604.6 271.7 591.6C242.5 571.5 246.1 531 266.5 507.2C286.8 483.4 324.1 479.4 342.8 491.1C355.5 499.3 362.3 513.4 364.1 528.1C366.8 526.2 369.2 523.8 372 520.6C374.6 517.5 379.7 509.9 379.7 509.9C382.7 505.3 386.4 501 390.5 497.3C399.1 489.8 410 486.1 421 486.1C430.5 486.1 440.2 488.9 448.6 494.6C451.3 496.4 452 497.4 451.1 498.9C449.9 501.1 448.6 503.1 447 505C444 508.6 440.9 507.3 438.8 506.4C438.5 506.3 438.2 506.1 437.9 506C428.5 502.7 420.8 503.4 412.8 508.2C395.5 518.7 392.9 539.1 396.1 554.7C399.4 570.6 408.2 576 415.1 577.7C427.7 580.9 444.6 574.1 455.3 561.5C458.5 557.7 463.4 560.2 466.9 563C467.1 563.1 467.2 563.2 467.3 563.3C467.8 563.9 467.3 564.9 467.3 565ZM335.8 511.4C322.9 495.4 299.5 500.8 286.3 515.6C273.1 530.5 272.9 554.9 287.3 565.2C300.8 574.8 322.3 569.7 332.9 554.3C340.3 543.5 347 525.3 335.8 511.4ZM658.6 545C656.8 560.6 648.8 576.4 636 586C616.5 600.5 590.1 604.7 566.4 591.7C563.4 589.6 560.7 587.3 558.4 584.8C554.4 588.4 549.7 592 544.5 595.1C528.6 604.7 506.4 602.2 492.7 589.4C484 581.6 479.8 568.7 481.4 555.6C482.8 544 493.2 504 502.9 468.2C493.4 468.5 485.1 468.2 480.5 466C473.1 462.4 474.9 450.1 475.6 446.6C475.7 446.1 476.2 445.7 476.7 445.7C480.3 445.7 493.9 445.6 509 445.5C515.3 422.5 520.3 405.2 520.3 405.2C522.1 399.1 528.8 395.8 534.9 395.8C536.1 395.8 537.2 395.9 538.3 396.2C538.7 396.3 538.9 396.7 538.8 397.2C537.2 407.1 534.1 425.1 530.4 445.5C538.6 445.5 546 445.6 551 445.7C568.6 446.1 591.8 447.1 596.5 447.3C597 447.3 597.5 447.7 597.6 448.2C598.1 450.4 598.5 455.9 592.2 459.5C586.8 462.5 547.6 465.3 529.6 466.5C528.6 466.6 527.7 466.6 526.7 466.7C519.2 508.1 511.2 551 510.8 552.9C508.8 562.9 515.1 569 520.7 570.2C531 572.4 539.4 568 546.4 561.6C542.5 542.9 548.6 521.9 561.1 507.2C581.4 483.4 618.7 479.4 637.4 491.1C655 502.6 661.2 525.2 658.6 545ZM630.6 511.4C617.7 495.4 594.3 500.8 581.1 515.6C567.9 530.5 567.7 554.9 582.1 565.2C595.6 574.8 617.1 569.7 627.7 554.3C635.1 543.5 641.8 525.3 630.6 511.4ZM775.8 461.3C781.6 465.1 788.9 463.3 793.6 459.8C796.8 457.4 798.9 453.5 799.4 449.3C800 444.9 798.9 438.7 794 435.5C792.1 434.3 789.9 433.8 787.6 433.8C784 433.8 780.3 435.1 777.4 436.8C776.5 437.4 775.8 438 775.1 438.8C774.7 439.3 774.3 439.9 774 440.5C769.9 447.7 769 456.6 775.8 461.3ZM910.2 491.3C896.9 482.9 874 482.6 854.6 491.8C858.8 468.7 867.9 405.3 869.2 397.3C869.3 397 869.2 396.8 869.1 396.6C869 396.4 868.8 396.3 868.6 396.3C867.5 396.1 866.4 395.9 865.2 395.9C859.1 395.9 852.4 399.2 850.6 405.3C850.6 405.3 815 549 813.8 555.7C805.6 568.4 795.7 573.3 784.9 570C775.9 567.2 776.4 560.3 776.7 556.9C777.2 551.5 786.5 498.2 788.2 486.3C788.3 485.5 787.8 484.8 787 484.6C785.1 484.3 783.1 484.1 781.1 484.1C774.5 484.1 767.7 486.5 763.7 496.5C763.6 496.9 751.9 537.8 749.7 546.6C749.4 547.7 749.2 548.8 748.9 549.9C740.3 562.9 727 574.3 707.8 570.2C702.2 569 696 564.9 697.9 552.9C698.4 549.7 716 447.9 721.1 415.4C721.2 414.9 721 414.5 720.6 414.4C719.5 414.1 718.3 414 717.2 414C711.1 414 704.5 417.3 702.6 423.4C702.6 423.4 674.5 526.5 668.5 555.6C665.8 568.4 667.7 580.9 679.1 591C689.7 600.5 710.1 603.5 727 596.4C736.8 592.3 745 585.6 750.7 579.8C758.1 594.6 775.8 604.2 792.1 600.3C804.7 597.3 814.3 588.2 820.6 580.6C823.1 584.2 826 587.4 829.1 589.9C843.6 601.4 864.1 603.5 882.7 598C892.1 595.9 901.1 591.8 908.9 586C921.7 576.3 929.8 560.6 931.5 545C934.1 525.2 927.8 502.6 910.2 491.3ZM901 556.6C890.5 572 866.4 577.8 852.9 568.2C838.4 557.9 841.2 532.7 854.4 517.9C867.6 503 891 497.7 903.9 513.7C915.1 527.5 908.4 545.7 901 556.6Z" fill="#1D78C6"/>
</svg>
