<?xml version="1.0" encoding="UTF-8"?>
<svg id="Calque_1" data-name="Calque 1" xmlns="http://www.w3.org/2000/svg" viewBox="0 0 87 27.34">
  <defs>
    <style>
      .cls-1 {
        fill: #004c45;
        fill-rule: evenodd;
      }
    </style>
  </defs>
  <path class="cls-1" d="M6.41,22.5H.25v-.12c.25-.37.44-.86.57-1.46.12-.6.19-1.25.19-1.96v-10.16c0-.84-.08-1.51-.25-2.02s-.41-.92-.75-1.26v-.12l5.53-1.72h.12v15.29c0,.71.06,1.36.19,1.96.12.6.32,1.09.57,1.46v.12ZM83.33,22.88c-1.39,0-1.95-.87-1.95-1.64,0-1.26,1.26-2.45,2.94-2.45,1.41,0,1.97.65,1.97,1.64s-1.15,2.45-2.96,2.45ZM11.32,13.78c-.01-.12-.03-.31-.03-.55,0-.96.15-1.71.44-2.23.29-.53.74-.8,1.35-.8s1.09.33,1.47.99c.38.66.6,1.53.67,2.6h-3.9ZM11.36,14.42c.13,1.1.44,2.03.92,2.8.48.78,1.07,1.37,1.78,1.78.7.4,1.47.6,2.29.6.69,0,1.31-.15,1.85-.44.55-.29.98-.69,1.3-1.2h.25c-.32,1.51-1.01,2.72-2.07,3.6-1.06.88-2.34,1.32-3.85,1.32-1.16,0-2.2-.25-3.14-.76-.93-.51-1.67-1.25-2.22-2.23-.55-.98-.82-2.14-.82-3.49s.29-2.55.87-3.6c.57-1.05,1.36-1.87,2.36-2.45.99-.58,2.1-.87,3.31-.87,1.09,0,2.04.23,2.87.67.82.45,1.45,1.05,1.89,1.8.44.75.66,1.57.66,2.46h-8.26ZM24.15,13.78c-.01-.12-.03-.31-.03-.55,0-.96.15-1.71.44-2.23.29-.53.75-.8,1.35-.8s1.09.33,1.47.99c.38.66.6,1.53.66,2.6h-3.9ZM24.2,14.42c.13,1.1.44,2.03.92,2.8.48.78,1.07,1.37,1.78,1.78.7.4,1.47.6,2.29.6.69,0,1.31-.15,1.85-.44.55-.29.98-.69,1.3-1.2h.25c-.32,1.51-1.01,2.72-2.07,3.6-1.06.88-2.33,1.32-3.85,1.32-1.16,0-2.2-.25-3.14-.76-.93-.51-1.67-1.25-2.22-2.23-.55-.98-.82-2.14-.82-3.49s.29-2.55.87-3.6c.57-1.05,1.37-1.87,2.36-2.45.99-.58,2.1-.87,3.31-.87,1.08,0,2.04.23,2.87.67.82.45,1.45,1.05,1.89,1.8.44.75.66,1.57.66,2.46h-8.26ZM39,18.46v-7.58h3.3l.35-1.01h-3.65v-3.03h-.12c-.77.84-1.65,1.59-2.63,2.23-.98.65-1.99,1.12-3.03,1.43v.12c.34.13.61.36.82.68.21.32.32.72.32,1.21v5.94c0,.87.19,1.64.58,2.31.39.67.92,1.19,1.6,1.55.68.37,1.45.55,2.3.55.95,0,1.81-.22,2.57-.67.75-.44,1.26-1.02,1.51-1.73l-.25-.12c-.08.15-.26.3-.52.43s-.57.2-.92.2c-.62,0-1.15-.22-1.58-.65-.43-.42-.64-1.04-.64-1.87ZM54.23,17.95h.25c-.19,1.5-.79,2.69-1.83,3.6-1.03.89-2.29,1.34-3.79,1.34-1.12,0-2.14-.25-3.07-.75-.93-.49-1.66-1.21-2.2-2.16-.55-.94-.82-2.07-.82-3.36,0-1.38.32-2.61.98-3.69.65-1.08,1.53-1.92,2.65-2.52,1.11-.6,2.35-.91,3.71-.91.62,0,1.29.06,2,.19.71.12,1.37.32,1.98.57v4.29h-.25c-.62-1.32-1.34-2.38-2.16-3.2-.81-.82-1.7-1.23-2.65-1.23-.82,0-1.46.32-1.93.96-.46.65-.69,1.57-.69,2.78,0,1.06.22,2.03.66,2.91.44.88,1.04,1.57,1.79,2.07.75.51,1.59.76,2.51.76.67,0,1.27-.15,1.79-.44.52-.29.87-.69,1.06-1.2ZM63.45,22.5h6.16v-.12c-.25-.37-.44-.85-.57-1.46-.12-.6-.19-1.25-.19-1.96v-5.43c0-1.21-.35-2.19-1.06-2.93-.7-.74-1.64-1.11-2.82-1.11-.91,0-1.68.22-2.33.67-.65.44-1.15,1.03-1.5,1.73h-.12V3.67h-.12l-5.53,1.72v.12c.34.34.59.76.75,1.26.17.51.25,1.18.25,2.02v10.16c0,.71-.06,1.36-.19,1.96-.12.6-.32,1.08-.57,1.46v.12h6.17v-.12c-.25-.37-.44-.85-.57-1.46-.12-.6-.19-1.25-.19-1.96v-5.31c0-.51.15-.9.46-1.2.31-.29.69-.44,1.15-.44s.85.15,1.13.46c.28.31.43.7.43,1.17v5.31c0,.71-.06,1.36-.19,1.96-.12.6-.32,1.08-.57,1.46v.13ZM76.6,6.48c0,.55-.19,1.01-.57,1.39-.38.38-.84.57-1.38.57s-1-.19-1.38-.57c-.38-.37-.57-.84-.57-1.39s.19-1.01.57-1.39c.37-.38.84-.57,1.38-.57s1,.19,1.38.57c.38.37.57.84.57,1.39ZM71.24,22.5h6.16v-.12c-.25-.37-.44-.85-.57-1.46-.12-.6-.19-1.25-.19-1.96v-8.59s-.13-.12-.13-.12l-5.18.96v.12c.34.34.66,1.94.66,3.29v4.35c0,.71-.06,1.36-.19,1.96-.12.6-.31,1.08-.57,1.46v.12ZM84.32,11.79c1.41,0,1.97.65,1.97,1.64s-1.16,2.45-2.96,2.45c-1.39,0-1.95-.87-1.95-1.64,0-1.26,1.26-2.45,2.94-2.45Z"/>
</svg>