<?xml version="1.0" encoding="UTF-8"?>
<svg id="Calque_1" data-name="Calque 1" xmlns="http://www.w3.org/2000/svg" xmlns:xlink="http://www.w3.org/1999/xlink" viewBox="0 0 368 120">
  <defs>
    <style>
      .cls-1 {
        fill: none;
      }

      .cls-2 {
        fill: #ed147d;
      }

      .cls-3 {
        fill: #3c4550;
      }

      .cls-4 {
        clip-path: url(#clippath);
      }
    </style>
    <clipPath id="clippath">
      <rect class="cls-1" width="367.45" height="119.45"/>
    </clipPath>
  </defs>
  <g class="cls-4">
    <g>
      <path class="cls-2" d="M102.35,43.12c-4.18-6.27-11.16-10.01-18.69-10.01-7.07,0-13.38,3.29-17.49,8.41-4.24-5.29-10.65-8.41-17.5-8.41-12.38,0-22.44,10.07-22.44,22.44v37.31h9.89v-37.3c0-6.92,5.63-12.55,12.55-12.55,4.21,0,8.12,2.09,10.46,5.6,1.37,2.06,2.1,4.46,2.1,6.95v37.31h9.89v-37.31c0-6.92,5.63-12.55,12.55-12.55,4.21,0,8.12,2.09,10.46,5.6,1.37,2.06,2.1,4.46,2.1,6.95v37.31h9.89v-37.31c0-4.45-1.3-8.75-3.76-12.44"/>
      <path class="cls-3" d="M276.99,18.07c0,3.12-2.53,5.65-5.65,5.65s-5.65-2.53-5.65-5.65,2.53-5.65,5.65-5.65,5.65,2.53,5.65,5.65Z"/>
      <path class="cls-3" d="M276.28,32.8h-9.89v59.8h9.89v-59.8Z"/>
      <path class="cls-3" d="M313.64,83.03c-11.24,0-20.38-9.14-20.38-20.38s9.14-20.38,20.38-20.38c6.35,0,12.28,2.94,16.13,7.93h11.46c-.67-1.5-1.47-2.94-2.39-4.32-5.63-8.45-15.05-13.5-25.2-13.5-16.69,0-30.27,13.58-30.27,30.27s13.58,30.27,30.27,30.27c10.18,0,19.61-5.07,25.24-13.56.9-1.36,1.68-2.79,2.35-4.26h-11.46c-3.85,4.99-9.77,7.93-16.13,7.93Z"/>
      <path class="cls-2" d="M165.76,59.59c0-14.74-11.99-26.74-26.73-26.74-8.96,0-17.28,4.46-22.26,11.92-2.93,4.39-4.48,9.52-4.48,14.81v2.58l.1,2.6c1.74,21.2,19.65,27.27,34.41,32.69,6.87,2.52,13.35,4.9,17.38,8.58l1.58,1.44v-12.33l-.46-.27c-2.93-1.74-7.01-3.15-11.73-4.79-12.81-4.45-29.91-9.9-30.93-25.3h43.12v-5.18h0ZM122.08,56.08l.28-1.1c.47-1.89,1.27-3.68,2.35-5.31,3.2-4.79,8.54-7.66,14.29-7.66,7.87,0,14.71,5.33,16.64,12.96l.28,1.1h-33.84Z"/>
      <path class="cls-3" d="M169.23,64.77h43.13c-1.02,15.4-18.12,20.86-30.93,25.3-4.72,1.64-8.8,3.05-11.73,4.79l-.46.27v12.33l1.58-1.44c4.03-3.67,10.52-6.06,17.38-8.58,14.75-5.42,32.67-11.49,34.41-32.69l.1-2.6v-2.58c0-5.3-1.55-10.42-4.48-14.81-4.98-7.47-13.3-11.92-22.26-11.92-14.74,0-26.73,11.99-26.73,26.74v5.18h-.01ZM179.07,56.08l.28-1.1c1.93-7.63,8.77-12.96,16.64-12.96,5.75,0,11.1,2.86,14.29,7.66,1.09,1.63,1.88,3.41,2.35,5.31l.28,1.1h-33.84Z"/>
      <path class="cls-3" d="M260.05,32.8h-16.5V11.98h-9.94v20.82h-8.97v9.93h8.97v49.86h9.94s0-49.86,0-49.86h16.5v-9.93Z"/>
    </g>
  </g>
</svg>