<?xml version="1.0" encoding="UTF-8" standalone="no"?>
<svg
   width="765.50067pt"
   height="215.84601pt"
   viewBox="0 0 765.50067 215.84601"
   version="1.1"
   id="svg31"
   sodipodi:docname="Pluxee.svg"
   inkscape:version="1.3 (0e150ed6c4, 2023-07-21)"
   xmlns:inkscape="http://www.inkscape.org/namespaces/inkscape"
   xmlns:sodipodi="http://sodipodi.sourceforge.net/DTD/sodipodi-0.dtd"
   xmlns="http://www.w3.org/2000/svg"
   xmlns:svg="http://www.w3.org/2000/svg">
  <sodipodi:namedview
     id="namedview31"
     pagecolor="#ffffff"
     bordercolor="#000000"
     borderopacity="0.25"
     inkscape:showpageshadow="2"
     inkscape:pageopacity="0.0"
     inkscape:pagecheckerboard="0"
     inkscape:deskcolor="#d1d1d1"
     inkscape:document-units="pt"
     inkscape:zoom="0.496875"
     inkscape:cx="440.75472"
     inkscape:cy="316.98113"
     inkscape:window-width="1920"
     inkscape:window-height="1001"
     inkscape:window-x="-9"
     inkscape:window-y="-9"
     inkscape:window-maximized="1"
     inkscape:current-layer="svg31" />
  <defs
     id="defs12">
    <clipPath
       id="clip-2">
      <path
         clip-rule="nonzero"
         d="M 465,45 H 914 V 495 H 465 Z m 0,0"
         id="path11" />
    </clipPath>
  </defs>
  <path
     fill-rule="evenodd"
     fill="#221c46"
     fill-opacity="1"
     d="m 699.44625,73.895325 c 17.45009,0 24.54646,12.09873 24.54646,20.38171 h -49.06966 c 0,-8.39931 7.1429,-20.38171 24.5232,-20.38171 m 20.56784,57.724905 c -3.23409,6.25877 -10.72599,10.53986 -20.38171,10.53986 -18.2179,0 -25.4306,-12.91307 -25.66327,-24.40687 h 90.64742 c 0.23267,-1.60541 0.88414,-6.25877 0.88414,-9.84185 0,-40.670343 -28.17609,-63.611401 -66.21729,-63.611401 -40.08868,0 -68.14843,22.941058 -68.14843,63.611401 0,40.99608 28.05975,63.6114 68.3811,63.6114 39.71641,0 58.37637,-21.68465 63.30893,-39.90254 z m 0,0"
     id="path15"
     style="stroke-width:5.9563" />
  <path
     fill-rule="evenodd"
     fill="#221c46"
     fill-opacity="1"
     d="m 69.521167,135.08698 c -16.24022,0 -27.757283,-11.5636 -27.757283,-26.94294 0,-14.634805 10.819062,-26.966215 27.757283,-26.966215 16.93823,0 27.75728,12.37794 27.75728,26.966215 0,14.77441 -10.95866,26.94294 -27.75728,26.94294 m 12.14526,-89.344467 c -17.799089,0 -33.085369,7.79437 -40.972812,16.961488 L 40.670349,48.115722 H 0 V 215.84601 h 41.926753 v -60.05159 c 9.841854,10.56313 23.522726,14.54174 37.366464,14.54174 41.531223,0 60.796133,-31.20076 60.796133,-62.30846 0,-38.343665 -24.7326,-62.285187 -58.422923,-62.285187"
     id="path16"
     style="stroke-width:5.9563" />
  <path
     fill-rule="evenodd"
     fill="#221c46"
     fill-opacity="1"
     d="m 154.39842,167.96295 h 41.46142 V 0 h -41.46142 z m 0,0"
     id="path17"
     style="stroke-width:5.9563" />
  <path
     fill-rule="evenodd"
     fill="#221c46"
     fill-opacity="1"
     d="m 297.62878,47.883057 v 62.308453 c 0,9.46959 -1.30294,14.05314 -5.18849,18.6367 -3.76923,4.39743 -9.65572,6.49144 -16.17042,6.49144 -6.53797,0 -12.42447,-2.09401 -16.19369,-6.49144 -3.88555,-4.58356 -5.18849,-9.16711 -5.18849,-18.6367 V 47.883057 h -41.88023 v 66.054413 c 0,18.52036 2.83855,30.66563 11.79627,40.92628 9.46958,10.88886 23.91826,15.23975 38.06447,15.23975 16.58922,0 28.05975,-6.18897 35.99372,-15.30955 l 0.0233,12.91307 h 40.62382 V 47.883057 Z m 0,0"
     id="path18"
     style="stroke-width:5.9563" />
  <path
     fill-rule="evenodd"
     fill="#221c46"
     fill-opacity="1"
     d="m 476.03853,47.883057 h -28.59489 l -31.4567,32.038368 -31.47997,-32.038368 h -28.54835 v 28.594888 l 32.03838,31.433425 -32.03838,31.4567 v 28.59488 h 28.54835 l 31.47997,-32.06163 31.4567,32.06163 h 28.59489 v -28.59488 l -32.06164,-31.4567 32.06164,-31.433425 z m 0,0"
     id="path19"
     style="stroke-width:5.9563" />
  <path
     fill-rule="evenodd"
     fill="#221c46"
     fill-opacity="1"
     d="m 553.63327,73.895325 c 17.47336,0 24.54647,12.09873 24.54647,20.38171 h -49.06966 c 0,-8.39931 7.1429,-20.38171 24.52319,-20.38171 m 20.56784,57.724905 c -3.23408,6.25877 -10.72598,10.53986 -20.3817,10.53986 -18.2179,0 -25.50041,-12.91307 -25.66327,-24.40687 h 90.64742 c 0.23266,-1.60541 0.88413,-6.25877 0.88413,-9.84185 0,-40.670343 -28.15281,-63.611401 -66.21728,-63.611401 -40.08868,0 -68.14843,22.941058 -68.14843,63.611401 0,40.99608 28.05975,63.6114 68.38109,63.6114 39.73968,0 58.30658,-21.68465 63.30894,-39.90254 z m 0,0"
     id="path20"
     style="stroke-width:5.9563" />
  <g
     clip-path="url(#clip-2)"
     id="g31"
     transform="matrix(5.9562983,0,0,5.9562983,-190.83421,-190.1362)" />
</svg>
