<?xml version="1.0" encoding="ISO-8859-1"?>
<!-- Generator: Adobe Illustrator 13.0.0, SVG Export Plug-In . SVG Version: 6.00 Build 14948)  -->
<!DOCTYPE svg PUBLIC "-//W3C//DTD SVG 1.1//EN" "http://www.w3.org/Graphics/SVG/1.1/DTD/svg11.dtd">
<svg version="1.1" id="Layer_1" xmlns="http://www.w3.org/2000/svg" xmlns:xlink="http://www.w3.org/1999/xlink" x="0px" y="0px" width="300px" height="55px" viewBox="0 0 300 55" style="" xml:space="preserve">
<path style="fill: rgb(223, 0, 49);" d="M83.625,36.674c5.064,0,9.165-4.104,9.165-9.166c0-5.061-4.101-9.167-9.165-9.167  c-5.063,0-9.165,4.106-9.165,9.167C74.46,32.57,78.562,36.674,83.625,36.674"/>
<path style="fill: rgb(223, 0, 49);" d="M73.042,36.672c-5.062,0-9.166-4.102-9.166-9.164c0-5.061,4.104-9.169,9.166-9.169V36.672"/>
<path style="fill: rgb(223, 0, 49);" d="M94.208,46.785l0.002-8.696l8.7,0.004C102.911,42.902,99.018,46.785,94.208,46.785"/>
<path style="fill: rgb(223, 0, 49);" d="M73.042,8.223v8.708l-8.71,0.002C64.332,12.123,68.232,8.223,73.042,8.223"/>
<path style="fill: rgb(223, 0, 49);" d="M73.04,46.785l0.002-8.696l-8.708,0.004C64.333,42.902,68.232,46.785,73.04,46.785"/>
<path style="fill: rgb(223, 0, 49);" d="M104.798,35.388l-0.004-15.755c2.683,1.6,4.48,4.525,4.48,7.875  C109.274,30.856,107.479,33.786,104.798,35.388"/>
<path style="fill: rgb(223, 0, 49);" d="M75.749,6.338l15.754,0.004c-1.599-2.684-4.527-4.484-7.878-4.484  C80.279,1.858,77.346,3.656,75.749,6.338"/>
<path style="fill: rgb(223, 0, 49);" d="M91.385,48.679l-15.754-0.002c1.6,2.682,4.527,4.479,7.877,4.479  C86.856,53.156,89.785,51.359,91.385,48.679"/>
<path style="fill: rgb(223, 0, 49);" d="M92.789,38.093c0,5.062-4.1,9.165-9.164,9.165c-5.063,0-9.167-4.104-9.167-9.165H92.789"/>
<path style="fill: rgb(223, 0, 49);" d="M94.212,36.672c5.061,0,9.165-4.102,9.165-9.164c0-5.061-4.104-9.169-9.165-9.169V36.672"/>
<path style="fill: rgb(223, 0, 49);" d="M92.789,16.943c0-5.064-4.1-9.169-9.164-9.169c-5.063,0-9.167,4.105-9.167,9.169H92.789"/>
<path style="fill: rgb(223, 0, 49);" d="M62.456,35.388l0.003-15.755c-2.684,1.6-4.481,4.525-4.481,7.875  C57.978,30.856,59.773,33.786,62.456,35.388"/>
<path style="fill: rgb(223, 0, 49);" d="M102.911,16.936l-8.7-0.004l-0.002-8.703C99.018,8.229,102.911,12.125,102.911,16.936"/>
<path style="fill: rgb(35, 73, 142);" d="M122.796,26.353h1.294c1.946,0,4.169-0.284,4.169-2.733c0-2.366-2.196-2.565-4.169-2.565h-1.294  V26.353 M118.851,17.956h4.255c4.225,0,9.268-0.143,9.268,5.325c0,2.311-1.548,4.226-4.057,4.563v0.057  c1.07,0.085,1.691,1.155,2.085,2.029l3.157,7.692h-4.396l-2.367-6.143c-0.563-1.465-1.07-2.028-2.732-2.028h-1.267v8.171h-3.946  V17.956z"/>
<path style="fill: rgb(35, 73, 142);" d="M141.129,35.198c1.155,0,2.057-0.505,2.648-1.295c0.62-0.817,0.789-1.861,0.789-2.988h-1.634  c-1.691,0-4.198,0.283-4.198,2.509C138.735,34.664,139.776,35.198,141.129,35.198 M136.707,23.871  c1.464-0.675,3.436-1.096,5.043-1.096c4.423,0,6.253,1.829,6.253,6.112v1.859c0,1.466,0.03,2.565,0.057,3.636  c0.028,1.101,0.085,2.114,0.169,3.24h-3.324c-0.141-0.761-0.141-1.72-0.169-2.17h-0.056c-0.875,1.605-2.761,2.507-4.48,2.507  c-2.565,0-5.071-1.549-5.071-4.31c0-2.17,1.042-3.437,2.479-4.142c1.436-0.704,3.298-0.846,4.874-0.846h2.085  c0-2.337-1.044-3.126-3.27-3.126c-1.604,0-3.211,0.618-4.479,1.576L136.707,23.871z"/>
<path style="fill: rgb(35, 73, 142);" d="M157.918,35.031c2.505,0,3.322-2.648,3.322-4.706c0-2.029-0.958-4.621-3.38-4.621  c-2.451,0-3.129,2.677-3.129,4.621C154.731,32.326,155.436,35.031,157.918,35.031 M161.382,35.988h-0.057  c-1.128,1.408-2.676,1.971-4.451,1.971c-4.452,0-6.087-3.661-6.087-7.634c0-4,1.635-7.55,6.087-7.55  c1.888,0,3.213,0.647,4.341,2.028h0.053v-8.312h3.776v21.131h-3.662V35.988z"/>
<path style="fill: rgb(35, 73, 142);" d="M169.008,16.857h3.775v3.604h-3.775V16.857z M169.008,23.112h3.775v14.51h-3.775V23.112z"/>
<path style="fill: rgb(35, 73, 142);" d="M183.399,35.031c2.9,0,3.664-2.593,3.664-5.017c0-2.226-1.184-4.31-3.664-4.31  c-2.451,0-3.634,2.14-3.634,4.31C179.766,32.41,180.525,35.031,183.399,35.031 M183.399,22.775c4.312,0,7.609,2.902,7.609,7.692  c0,4.17-2.792,7.492-7.609,7.492c-4.792,0-7.579-3.322-7.579-7.492C175.82,25.677,179.117,22.775,183.399,22.775z"/>
<rect x="192.999" y="28.493" style="fill: rgb(35, 73, 142);" width="7.412" height="3.099"/>
<path style="fill: rgb(35, 73, 142);" d="M217.982,37.342c-1.438,0.338-2.987,0.617-4.482,0.617c-6.365,0-10.788-3.183-10.788-9.832  c0-6.733,4.114-10.509,10.788-10.509c1.298,0,3.017,0.252,4.455,0.816l-0.283,3.326c-1.492-0.846-2.845-1.043-4.255-1.043  c-4.057,0-6.591,3.099-6.591,7.127c0,4.002,2.479,7.017,6.674,7.017c1.553,0,3.383-0.339,4.313-0.817L217.982,37.342"/>
<path style="fill: rgb(35, 73, 142);" d="M225.61,35.198c1.153,0,2.054-0.505,2.646-1.295c0.618-0.817,0.791-1.861,0.791-2.988h-1.638  c-1.689,0-4.196,0.283-4.196,2.509C223.214,34.664,224.255,35.198,225.61,35.198 M221.186,23.871  c1.466-0.675,3.438-1.096,5.045-1.096c4.421,0,6.253,1.829,6.253,6.112v1.859c0,1.466,0.028,2.565,0.057,3.636  c0.029,1.101,0.083,2.114,0.172,3.24h-3.329c-0.14-0.761-0.14-1.72-0.166-2.17h-0.057c-0.875,1.605-2.761,2.507-4.479,2.507  c-2.565,0-5.073-1.549-5.073-4.31c0-2.17,1.043-3.437,2.481-4.142c1.435-0.704,3.296-0.846,4.873-0.846h2.086  c0-2.337-1.044-3.126-3.271-3.126c-1.605,0-3.213,0.618-4.479,1.576L221.186,23.871z"/>
<path style="fill: rgb(35, 73, 142);" d="M236.196,23.112h3.58v1.972h0.055c1.185-1.661,2.791-2.309,4.763-2.309  c3.438,0,4.932,2.422,4.932,5.689v9.158h-3.777v-7.75c0-1.774-0.026-4.167-2.451-4.167c-2.732,0-3.322,2.958-3.322,4.817v7.101  h-3.778V23.112"/>
<path style="fill: rgb(35, 73, 142);" d="M258.475,35.198c1.155,0,2.057-0.505,2.649-1.295c0.617-0.817,0.791-1.861,0.791-2.988h-1.638  c-1.689,0-4.197,0.283-4.197,2.509C256.08,34.664,257.121,35.198,258.475,35.198 M254.051,23.871  c1.466-0.675,3.439-1.096,5.047-1.096c4.42,0,6.252,1.829,6.252,6.112v1.859c0,1.466,0.029,2.565,0.058,3.636  c0.027,1.101,0.083,2.114,0.171,3.24h-3.326c-0.143-0.761-0.143-1.72-0.169-2.17h-0.058c-0.874,1.605-2.761,2.507-4.479,2.507  c-2.565,0-5.073-1.549-5.073-4.31c0-2.17,1.041-3.437,2.482-4.142c1.434-0.704,3.295-0.846,4.871-0.846h2.088  c0-2.337-1.044-3.126-3.271-3.126c-1.606,0-3.212,0.618-4.479,1.576L254.051,23.871z"/>
<path style="fill: rgb(35, 73, 142);" d="M275.261,35.031c2.509,0,3.326-2.648,3.326-4.706c0-2.029-0.959-4.621-3.382-4.621  c-2.449,0-3.127,2.677-3.127,4.621C272.078,32.326,272.784,35.031,275.261,35.031 M278.727,35.988h-0.055  c-1.126,1.408-2.675,1.971-4.45,1.971c-4.452,0-6.089-3.661-6.089-7.634c0-4,1.637-7.55,6.089-7.55c1.885,0,3.21,0.647,4.337,2.028  h0.057v-8.312h3.775v21.131h-3.664V35.988z"/>
<path style="fill: rgb(35, 73, 142);" d="M291.341,35.198c1.156,0,2.059-0.505,2.649-1.295c0.618-0.817,0.791-1.861,0.791-2.988h-1.639  c-1.688,0-4.195,0.283-4.195,2.509C288.947,34.664,289.988,35.198,291.341,35.198 M286.918,23.871  c1.465-0.675,3.438-1.096,5.044-1.096c4.422,0,6.255,1.829,6.255,6.112v1.859c0,1.466,0.026,2.565,0.058,3.636  c0.027,1.101,0.084,2.114,0.17,3.24h-3.328c-0.14-0.761-0.14-1.72-0.169-2.17h-0.057c-0.872,1.605-2.759,2.507-4.477,2.507  c-2.565,0-5.073-1.549-5.073-4.31c0-2.17,1.041-3.437,2.479-4.142c1.437-0.704,3.296-0.846,4.873-0.846h2.088  c0-2.337-1.044-3.126-3.271-3.126c-1.606,0-3.21,0.618-4.477,1.576L286.918,23.871z"/>
<path style="fill: rgb(35, 73, 142);" d="M17.001,37.4c-1.438,0.339-2.987,0.62-4.481,0.62c-6.367,0-10.791-3.184-10.791-9.831  c0-6.736,4.113-10.511,10.791-10.511c1.298,0,3.015,0.252,4.453,0.816l-0.283,3.326c-1.491-0.846-2.846-1.044-4.253-1.044  c-4.058,0-6.594,3.098-6.594,7.128c0,4.002,2.481,7.018,6.678,7.018c1.552,0,3.381-0.338,4.313-0.818L17.001,37.4"/>
<path style="fill: rgb(35, 73, 142);" d="M23.838,25.962h1.606c1.662,0,3.719-0.366,3.719-2.396c0-2.282-2-2.451-3.804-2.451h-1.521V25.962   M23.838,34.585h1.859c1.833,0,4.058-0.451,4.058-2.734c0-2.565-2.085-2.96-4.058-2.96h-1.859V34.585z M19.894,18.017h6.875  c2.535,0,6.338,0.732,6.338,5.042c0,2.339-1.578,3.973-3.916,4.396v0.054c2.677,0.255,4.508,2.06,4.508,4.481  c0,4.959-4.451,5.692-6.931,5.692h-6.875V18.017z"/>
<path style="fill: rgb(35, 73, 142);" d="M51.413,37.4c-1.437,0.339-2.985,0.62-4.479,0.62c-6.369,0-10.792-3.184-10.792-9.831  c0-6.736,4.115-10.511,10.792-10.511c1.295,0,3.015,0.252,4.453,0.816l-0.284,3.326c-1.492-0.846-2.844-1.044-4.253-1.044  c-4.056,0-6.593,3.098-6.593,7.128c0,4.002,2.48,7.018,6.678,7.018c1.55,0,3.383-0.338,4.311-0.818L51.413,37.4"/>
</svg>